<svg width="974" height="110" xmlns="http://www.w3.org/2000/svg" xmlns:xlink="http://www.w3.org/1999/xlink"><defs><path id="a" d="M260 81h1v3h-1z"/></defs><g fill="none" fill-rule="evenodd"><path d="M951.75 104l-3.65-14.1h3.05c0-8.75-12.45-6.85-15.35-16.6-.1-.9-.55-1.6-1.15-1.6-.5 0-.95.55-1.1 1.35-2.75 10.05-15.1 8.05-15.1 16.85h3.45l-3.65 14.1h33.5zM270.35 67.95l-12.5 9.55V58.25c0-.45-.4-.85-1.05-1-.6-.15-1.3 0-1.7.35l-10.2 9.35c-.2.2-.3.4-.3.65v4.15h-4.55v-14.5c0-.15-.05-.35-.15-.5l-5.5-7.55c-.5-.7-2.2-.7-2.7 0l-5.5 7.55c-.1.15-.15.3-.15.5V83.9h-2.4v23.4h46.7c.85 0 1.5-.5 1.5-1.05v-37.2c.05-.6-.65-1.1-1.5-1.1zM441.65 70l-10.75 8.2V61.65c0-.4-.35-.75-.9-.85-.55-.1-1.1 0-1.45.3l-8.8 8.05c-.15.15-.25.35-.25.55v3.55h-3.9V60.8c0-.15-.05-.3-.15-.4l-4.75-6.5c-.45-.6-1.9-.6-2.35 0l-4.75 6.5c-.1.15-.15.25-.15.4v44.35l9.75 3.35H441.55c.7 0 1.3-.4 1.3-.9V70.9c.1-.5-.5-.9-1.2-.9zM305 61c-.1-.35-.7-.35-.8 0l-2.35 8.15-.3-2.9c0-.2-.2-.4-.4-.4s-.4.15-.4.4l-.65 6.5h-2l-3.4-20.2V49.1c0-.25-.2-.4-.4-.4h-.7c-.25 0-.4.2-.4.4v3h-4.7v-3c0-.25-.2-.4-.4-.4h-.7c-.25 0-.4.2-.4.4v3.35l-3.4 20.3h-2l-.65-6.5c0-.2-.2-.4-.4-.4s-.4.15-.4.4l-.7 6.9v3.45c0 .25.2.4.4.4h.25v31.85c0 .25.2.4.4.4h4.15c.25 0 .4-.2.4-.4h11.55c0 .25.2.4.4.4h11c.25 0 .4-.2.4-.4v-35.7c0-.033-1.133-4.083-3.4-12.15zM847.4 66.25c-.1-.2-.3-.35-.5-.35s-.4.15-.5.35l-.15.35v-1.4c0-.05 0-.15-.05-.2-.2-.5-.8-1.8-1.9-2.3-.1-.05-.15-.05-.25-.05h-1v-.75c0-.7-.55-1.25-1.2-1.25-.65 0-1.2.55-1.2 1.25v.75h-1c-.1 0-.15 0-.25.05-1.1.5-1.7 1.75-1.9 2.3-.05.05-.05.15-.05.2v1.4l-.15-.35c-.1-.2-.3-.35-.5-.35s-.4.15-.5.35l-.65 1.3c-.05.1-.05.15-.05.25v14.55h-2.95v-.4c0-.3-.25-.6-.6-.6h-.65c-.9 0-1.65-.75-1.65-1.7 0-.3-.25-.6-.6-.6h-.75c-.25-1.9-1.75-3.3-3.7-3.3-1.95 0-3.45 1.4-3.7 3.3h-.75c-.3 0-.6.25-.6.6 0 1-.7 1.7-1.65 1.7h-.65c-.3 0-.6.25-.6.6v.4h-2.95V67.8c0-.1 0-.15-.05-.25l-.65-1.3c-.2-.4-.85-.4-1.05 0l-.15.35v-1.4c0-.05 0-.15-.05-.2-.2-.5-.8-1.8-1.9-2.3-.1-.05-.15-.05-.25-.05h-1v-.75c0-.35-.15-.65-.35-.9-.25-.25-.55-.35-.85-.35-.65 0-1.2.55-1.2 1.25v.75h-1c-.1 0-.15 0-.25.05-1.1.5-1.7 1.75-1.9 2.3-.05.05-.05.15-.05.2v1.4l-.15-.35c-.2-.4-.85-.4-1.05 0l-.65 1.3c-.05.1-.05.15-.05.25v40.3c0 .3.25.6.6.6h19.7c.3 0 .6-.25.6-.6h5.2c0 .3.25.6.6.6h19.7c.3 0 .6-.25.6-.6V67.8c0-.1 0-.15-.05-.25l-.75-1.3zM112.4 52.8c0-2.15-2.75-2.15-2.75 0v3.8l-1 5.35h4.75l-1-5.35v-3.8zM47.45 52.8c0-1-.6-1.65-1.35-1.65-.75 0-1.35.65-1.35 1.65v3.8l-1 5.35h4.75l-1-5.35v-3.8h-.05zM128.35 56.6v-3.8c0-1-.6-1.65-1.35-1.65-.75 0-1.35.65-1.35 1.65v3.8l-1 5.35h4.75l-1.05-5.35z" fill="#409DD6" fill-rule="nonzero"/><path d="M129.55 108.7l-.2-6.95V61.95h-4.75l-4.25-12.7v-9.3c0-.8-.6-1.45-1.35-1.45-.75 0-1.35.65-1.35 1.45v9.3l-4.25 12.7h-4.75v8.5H64.4v-8.5h-4.75l-4.25-12.7v-9.3c0-.8-.6-1.45-1.35-1.45-.75 0-1.35.65-1.35 1.45v9.3l-1.1 3.2-3.15 9.45H43.7V108.65l85.85.05zm-20.9-25.05v25.05H64.4V75.35h44.25v8.3z" fill="#409DD6" fill-rule="nonzero"/><path d="M63.4 56.6v-3.8c0-2.15-2.75-2.15-2.75 0v3.8l-1 5.35h4.75l-1-5.35zM714.2 73.2h-.85v-4c0-.6-.5-1.1-1.1-1.1h-.85V65c0-.6-.5-1.1-1.1-1.1h-1.95c-.6 0-1.1.5-1.1 1.1v3.1h-.85c-.6 0-1.1.5-1.1 1.1v4h-.85c-.6 0-1.1.5-1.1 1.1V90h-1.75V68.15c0-.25-.1-.45-.2-.65l-3.9-5.1c-.2-.25-.5-.4-.85-.4s-.65.15-.85.4l-3.9 5.1c-.15.2-.2.4-.2.65v20.6h-1.75V78.3c0-.3-.1-.55-.3-.75l-9.75-10.2c-.3-.3-.75-.4-1.2-.25-.4.15-.7.55-.7 1v16.75h-1.75V57.9c0-.15-.05-.35-.1-.5l-3.9-7.65c-.35-.7-1.55-.7-1.9 0l-3.9 7.65c-.1.15-.1.3-.1.5v21.45h-3.2V68.4c0-.25-.1-.45-.2-.65l-7.25-9.45c-.3-.35-.75-.5-1.2-.35-.45.15-.75.55-.75 1v9.85h-8.85c-.6 0-1.1.5-1.1 1.1v37.7c0 .6.5 1.1 1.1 1.1h66.9c.6 0 1.1-.5 1.1-1.1v-7.75h1.2c.6 0 1.1-.5 1.1-1.1v-24.4c.05-.65-.45-1.15-1-1.15zM192.4 96.4h-.2v-4.3l.95-.15.05-.85-.05-.45h-1.2V80.3h.2c.25 0 .45-.15.45-.4s-.15-.4-.4-.4v-1.15c0-1.15-.85-2.15-2-2.3V70.8h.25c.3 0 .5-.2.5-.45 0-.2-.15-.35-.3-.45.85-.8 1.55-1.85 1.9-3 .2-.3.3-.65.35-1v-.35-.5-.25c0-.2 0-.3-.05-.45 0-.2 0-.3-.05-.45-.25-2.35-1.6-4.35-3.5-5.45a9.917 9.917 0 0 1-3.3-4.75v-1.6c.3-.3.55-.7.45-1.15-.05-.15-.05-.2-.05-.25 0-.5-.4-.9-.9-.9s-.9.4-.9.9c0 .1 0 .2.05.25 0 .5.25.85.55 1v1.55c-.45 1.45-1.4 3.45-3.5 5.1-2.1 1.25-3.55 3.55-3.55 6.15 0 .25 0 .5.05.75.1 1.8.85 3.45 2.05 4.65-.05.2-.05.25-.05.25-.25-.2-.5-.4-.8-.6a7.39 7.39 0 0 1-2.5-3.6v-1.15c.3-.25.45-.55.4-.9-.05-.15-.05-.2-.05-.25 0-.4-.3-.7-.7-.7-.4 0-.7.3-.7.7 0 .1 0 .2.05.25 0 .45.15.65.4.8v.95c-.15.55-.45 1.25-.9 1.95h-.2v-15.5h.35l.1-.3v-1.1l-.15-.15h-.85v-.75l-1-.05-4.05-13.1-.3-1.45V30.9c.15-.3.35-.5.45-.7.2-.4.35-.8.35-1.3v-.35c0-.4 0-.75-.15-1.1-.25-.65-.75-1.2-1.35-1.55-.75-.6-1.1-1.3-1.3-1.85v-.45c.1-.1.15-.2.2-.3 0-.25.05-.3.05-.35-.05-.4-.2-.5-.4-.5s-.35.15-.35.35c0 .1.05.2.1.25-.05.35.05.45.15.5v.3c-.2.6-.55 1.4-1.4 2.05-.85.5-1.4 1.4-1.4 2.45 0 .15 0 .25.05.4 0 .8.3 1.5.85 2v4.6l-.2 1.3L160.8 50h-.95v.9h-1V52l.05.45h.45v5.75c-1.6-1.45-2.4-3.05-2.85-4.35v-1.6c.3-.3.55-.7.45-1.15-.05-.15-.05-.2-.05-.25 0-.5-.4-.9-.9-.9s-.9.4-.9.9c0 .1 0 .2.05.25 0 .5.25.85.55 1v1.4c-.45 1.45-1.4 3.45-3.5 5.1a7.665 7.665 0 0 0-3.35 4.35c-1-1.1-1.55-2.25-1.85-3.2V58.4c.25-.3.45-.65.4-1.05-.05-.15-.05-.2-.05-.25 0-.45-.35-.8-.8-.8-.45 0-.8.35-.8.8 0 .1 0 .2.05.25 0 .5.2.75.5.9v1.2c-.4 1.3-1.25 3.05-3.1 4.55a6.303 6.303 0 0 0-3.15 5.45c0 .25 0 .5.05.75 0 .25.05.45.1.65.3 1.25.95 2.4 1.85 3.25-.15.05-.25.2-.25.35 0 .2.2.4.4.4l.25.1v4.55c-1 .15-1.8 1-1.8 2.05v1c-.2 0-.35.15-.35.35 0 .2.15.35.35.35h.3v9.2h-1v.75l.05.45h.6v3.9l-2.5 2.35.05.4h.55v4.55c0 .033.017.183.05.45 0 .1.1.15.15.15h.6l54.05-.1h.8c.15 0 .25-.1.25-.2V99.5h.55l.05-.4-.2-.15-2.6-2.55zM635.6 49.55c0-1.3-1.15-2.35-2.6-2.35-1.45 0-2.6 1.05-2.6 2.35 0 1.15.9 2.1 2.1 2.35-.15.9-2.35 16.2-4 39.9-.55-13-1.8-24.05-4.55-49.05 1.15-.25 2-1.2 2-2.3 0-1.3-1.15-2.4-2.6-2.4-1.45 0-2.6 1.05-2.6 2.4 0 1.1.85 2.05 2 2.3-1.15 10.4-3.6 34.3-4.55 57.85h-2.25c-1-4.55-2.1-8.4-2.75-10.45 1.2-.2 2.1-1.2 2.1-2.35 0-1.3-1.15-2.4-2.6-2.4-1.45 0-2.6 1.05-2.6 2.4 0 1.15.95 2.15 2.15 2.35-.6 2.05-1.7 5.9-2.75 10.45h-2.25c-.95-23.55-3.4-47.5-4.55-57.85 1.15-.25 2-1.2 2-2.3 0-1.3-1.15-2.4-2.6-2.4-1.45 0-2.6 1.05-2.6 2.4 0 1.15.85 2.05 2 2.3-2.75 25-4 36.05-4.55 49.05-1.2-17.15-3.1-33-4-39.9 1.2-.2 2.1-1.15 2.1-2.35 0-1.3-1.15-2.35-2.6-2.35-1.45 0-2.6 1.05-2.6 2.35 0 1.15.9 2.15 2.15 2.35-4.4 34.7-5.05 29.9-5.05 57.45H638.4c0-27.5-.65-22.75-5.05-57.45 1.35-.2 2.25-1.2 2.25-2.35zM567.8 69.85h-4.5V63.3l1.35-2c.35-.6-.05-1.35-.75-1.35h-24.65V57.9c0-.5-.4-.85-.85-.85l-.1-4.3c0-.9-.7-1.6-1.6-1.6-.9 0-1.6.7-1.6 1.6v4.3h-2.5v-4.3c0-.1-.1-.2-.1-.3v-2c0-1.4-.8-2.6-1.9-2.9-.35-.1-.65-.5-.65-1 0-.45-.3-.8-.65-.8V41.6c.9-.45 1.5-1.35 1.5-2.45 0-.65-.55-1.2-1.2-1.2-.55 0-1 .35-1.15.85-.1-.05-.25-.05-.4-.05-.15 0-.25.05-.4.05-.15-.5-.6-.85-1.15-.85-.65 0-1.2.55-1.2 1.2 0 1.05.6 2 1.5 2.45v4.15c-.35 0-.65.35-.65.8 0 .45-.25.9-.65 1-1.1.3-1.9 1.5-1.9 2.9v2c0 .1-.1.2-.1.3v4.3H521v-4.3c0-.9-.7-1.6-1.6-1.6-.9 0-1.6.7-1.6 1.6v4.3c-.65 0-1 .4-1 .85V60h-24.65c-.7 0-1.1.75-.75 1.35l1.55 2V69.9h-4.7c-.7 0-1.1.75-.75 1.35l3.25 3.6V83.4h-.7c-.55 0-.95.5-.85 1.05l.25 1.2c.1.4.45.7.85.7h.45v20.1h-.25c-.4 0-.75.3-.85.7l-.25 1.2c-.1.55.3 1.05.85 1.05h6.95c.55 0 .95-.5.85-1l-.2-1.2c-.05-.4-.45-.75-.85-.75h-.65v-20.2h.65c.45 0 .8-.3.85-.75l.2-1.2c.1-.55-.3-1-.85-1h6.1c-.55 0-.95.5-.85 1.05l.25 1.2c.1.4.45.7.85.7h.5v20.1h-.5c-.4 0-.75.3-.85.7l-.25 1.2c-.1.55.3 1.05.85 1.05h6.95c.55 0 .95-.5.85-1l-.2-1.2c-.05-.4-.45-.75-.85-.75h-.6v-20.1h.6c.45 0 .8-.3.85-.75l.2-1.2c.1-.55-.3-1-.85-1h6.1c-.55 0-.95.5-.85 1.05l.25 1.2c.1.4.45.7.85.7h.55v20.1h-.55c-.4 0-.75.3-.85.7l-.25 1.2c-.1.55.3 1.05.85 1.05h6.95c.55 0 .95-.5.85-1l-.2-1.2c-.05-.4-.45-.75-.85-.75h-.55v-20.1h.55c.45 0 .8-.3.85-.75l.2-1.2c.1-.55-.3-1-.85-1h9.8c-.55 0-.95.5-.85 1.05l.25 1.2c.1.4.45.7.85.7h.45v20.1h-.45c-.4 0-.75.3-.85.7l-.25 1.2c-.1.55.3 1.05.85 1.05h6.95c.55 0 .95-.5.85-1l-.2-1.2c-.05-.4-.45-.75-.85-.75h-.65v-20.1h.65c.45 0 .8-.3.85-.75l.2-1.2c.1-.55-.3-1-.85-1h6.1c-.55 0-.95.5-.85 1.05l.25 1.2c.1.4.45.7.85.7h.5v20.1h-.5c-.4 0-.75.3-.85.7l-.25 1.2c-.1.55.3 1.05.85 1.05h6.95c.55 0 .95-.5.85-1l-.2-1.2c-.05-.4-.45-.75-.85-.75h-.6v-20.1h.6c.45 0 .8-.3.85-.75l.2-1.2c.1-.55-.3-1-.85-1h6.1c-.55 0-.95.5-.85 1.05l.25 1.2c.1.4.45.7.85.7h.55v20.1h-.55c-.4 0-.75.3-.85.7l-.25 1.2c-.1.55.3 1.05.85 1.05h6.95c.55 0 .95-.5.85-1l-.2-1.2c-.05-.4-.45-.75-.85-.75h-.55v-20.1h.55c.45 0 .8-.3.85-.75l.2-1.2c.1-.55-.3-1-.85-1h-.75v-8.55l3.05-3.6c.45-.5.05-1.3-.65-1.3z" fill="#409DD6" fill-rule="nonzero"/><g transform="translate(43 22)"><use fill="#D8D8D8" xlink:href="#a"/><path stroke="#979797" d="M260.5 81.5h1v2h-1z"/></g><path d="M968 110v-7.33c2.699-.05 4.3-.45 4.75-1.103.15-.15.25-.402.25-.653 0-.552-.45-1.054-1-1.054-.45 0-.9.251-1.1.602-1.149.201-1.649 0-2.748-.853l-2.55-2.56v-4.92c2.45-.05 3.05-.602 3.25-.853.25-.2.25-.451.25-.602 0-.502-.4-.853-.9-.853-.4 0-.75.25-.9.451-.9.201-1.4 0-2.199-.602l-1.9-2.008v-3.815c1.6 0 2.1-.502 2.25-.753.15-.15.2-.301.2-.502 0-.452-.3-.753-.8-.753-.3 0-.65.15-.85.452-.6.1-.999-.05-1.449-.502l-1.15-1.154-6.747-8.685c.35-.3.35-.602.35-.702 0-.201-.1-.352-.3-.502.2-.352.3-.502.3-.703 0-.2-.15-.352-.35-.502.05-.351.05-.803-.2-1.054-.9-.201-1.05.3-1.15.903-.349.15-.399.452-.399.603 0 .2.1.351.3.502-.2.351-.3.502-.3.702 0 .251.2.402.4.553 0 .1-2.266 3.045-6.797 8.834l-1.2 1.155c-.75.602-1.05.602-1.05.602-.55-.401-.85-.552-1.25-.552-.449 0-.799.301-.799.753 0 .2.05.351.2.502.25.351.85.753 1.8.753l.5 3.815-1.85 1.958c-.8.652-1.3.853-1.45.853-.9-.502-1.249-.703-1.649-.703-.5 0-.9.352-.9.854 0 .2.1.451.2.552.35.452 1.05.954 2.15.954l1.15 4.97-2.4 2.459c-.4.351-.75.552-1.05.703l-20.891-23.643c-.367-.402-4.132 3.128-11.296 10.591L888.434 66.48c-.367-.402-9.197 8.952-26.49 28.06l-7.497-8.433c-.366-.435-5.714 4.92-16.043 16.063V72.452c-.034-.067-1.516-2.058-4.449-5.973-.2-.301-.55-.452-.95-.452-.4 0-.699.15-.949.452l-4.248 5.622c-.15.2-.25.452-.25.703v27.709l-23.79-.1-3.949-15.26h-3.549V74.41h-3.848v-1.907l-1.6-1.205c-1.349 0-1.349-7.53-1.349-7.53.35-.05.35-3.514.35-3.664 0-.15.35-.402.35-.502 0-.1.05-14.507.05-15.511 0-.251 0-.352.3-.352 1.2-.1 1.649-.25 1.949-.3 1.3.05 4.098.05 4.098.05 1-.402 1.45-.904 1.75-1.356.35-.502 1.2-1.707 1.549-2.108 2.549.05 3.599-.05 3.898-.05 1.55-.302 1.75-.251 1.8-.302.4-.3.4-.502.35-.552-.45-.3-1.6-.3-1.75-.3-.05-.352-.7-.403-.95-.403-1.599.151-1.799.302-1.899.352-1.05-.301-3.448-.552-4.398-.653-.95-.1-2.349-.25-3.948-.552-1.45-.301-2.8-.853-4.049-.954-1.45-.05-1.55-.552-1.649-1.255-.1-.903-.15-1.957-.15-2.61 0-1.154-.65-2.158-1.9-2.158-1.299 0-1.948 1.104-1.948 2.259 0 1.154-.05 1.656-.05 1.957 0 .301-.05.502-.05.703-.05.301-.15 1.054-.15 1.054-1.95.05-3.899.402-5.348.904-3.449.502-7.747.953-7.897 1.004-.2.351-.55.351-.55.351-.7-.301-1.2-.402-1.7-.402-1.199.151-1.199.402-1.149.402-1.849.301-1.849.502-1.799.552.65.352.65.502.7.552 1.799.151 2.649.151 3.049.151 2.399.1 3.098 1.004 3.498 1.556.4.552 1.15 1.807 1.5 1.857.25 0 2.998-.05 3.548.05.65.101 1.05.402 1.6.603.6.251 1.349.402 1.499.602.1.151.05 7.028.05 7.179.7.3.7 1.204.7 1.556v2.208c0 .954.05 2.962.05 3.062.25.452.25 12.55.2 12.55l-1.25 1.205-1.65 1.907c-2.698.1-2.748.15-2.748.251v21.786c-.7 0-1.35.15-1.75.3l-1.699.653V85.353a.579.579 0 0 0-.6-.602h-3.198V73.757c0-2.108-1.45-3.965-3.449-4.467v-4.568a.579.579 0 0 0-.6-.602c-1.55 0-1.8.25-1.8.602v4.568c-1.998.552-3.448 2.36-3.448 4.467v10.994h-6.697v-5.472a.579.579 0 0 0-.6-.602l-1.7-8.735a.579.579 0 0 0-.599-.602h-6.547V57.092c-.65-4.618-4.049-7.981-8.297-8.483v-6.125a.579.579 0 0 0-.6-.602c-1.55 0-1.799.251-1.799.602v6.125c-4.248.552-7.597 3.865-8.197 8.182-.033.067-.066 4.283-.1 12.65h-6.997c-.35 0-.6.25-.6.602v8.734c-1.55 0-1.799.251-1.799.603v5.471h-3.798V73.356c0-2.108-1.45-3.966-3.45-4.468V64.22a.579.579 0 0 0-.599-.602c-1.55 0-1.8.25-1.8.602v4.668c-1.998.552-3.448 2.36-3.448 4.468V84.85h-6.097c-.35 0-.6.251-.6.602v15.411c-.067-.033-5.981-2.36-17.743-6.977-.7-.251-1.85-.352-2.899-.251-1.05.1-1.75.401-1.75.753v7.128h-11.445v-1.406a2.01 2.01 0 0 0-1.999-2.008h-3.648v-4.166l-2.8-15.511c.95-.552 1.55-1.657 1.4-2.811l-.9-7.831c.65-.2 1.1-.803 1.1-1.506 1.15 0 1.85-.703 1.85-1.606V61.81l.4-.702.499-.352.45-.602.45-.653.45-.602.15-1.205-4.299-2.51-.6 1.004-1.899-1.104-.25-2.108a3.965 3.965 0 0 0-2.649-3.363c-.1-.251-.25-.502-.5-.703v-.854l.05-5.32c.1-.402.1-.804.1-1.205l2.1-1.456-2.8 1.054 1.55-2.911-2.499 2.46c-.033 0 .333-1.256 1.1-3.765l-2.15 3.363-.5-4.167-.55 4.167-2.148-3.363 1.25 3.714c-.034 0-.917-.803-2.65-2.41l1.65 2.862c-.034 0-1-.335-2.9-1.004l2.1 1.456v1.204c.033 0 .067 1.423.1 4.267l-2.45-3.263-2.748-13.151v-2.41l-.45-.502-.1-1.506 1.3-2.058c-.85-.15-.8-.351-.8-.552.05-.402-.05-.753-.2-1.104-.1-.352-.25-.703-.25-1.105-.2.352-.4.603-.6.954 0-.452-.05-.853-.05-1.305-.3.402-.55.753-.85 1.155-.05-.352-.05-.653-.05-1.004-.649.3-1.149 1.004-1.149 1.706 0 .452.15.904.45 1.255l-1.2 2.058 1.35 1.607-.3.702v1.808l.3 2.961 2.35 12.299c-1.05.602-1.55 1.606-1.45 2.61-.4.703-.55 1.255-.3 1.757l1.35 2.76 1.249 4.117.3.954.05 2.409c-.4.552-.6 1.205-.5 1.857l.45 3.464.05.853-.85 2.31c-.05.2-.1.4-.1.552l.2 1.907.1.853.45 4.066.2 3.715v9.387c0 .15.1.301.2.401l-.3 4.568-1.1.804v3.162h-4.248c-1.1 0-2 .904-2 2.008v2.309h-11.595l-1.5 3.765-.749-2.108h-4.848l-2.499-7.028-.75-2.108h-4.898l-3.248-9.136h-4.898l-2.5-7.028-.75-2.108h-5.347V63.166h-26.79v13.453h-5.397l-.75 2.108-2.499 7.028h-4.898l-.75 2.108-2.499 7.028h-4.898l-.75 2.108-2.498 7.028h-4.199V87.712c0-.2-.15-.351-.4-.502l-7.397-3.815c-.4-.2-1-.3-1.649-.3-.65 0-1.25.1-1.65.3l-7.396 3.815c-.25.151-.4.302-.4.502v15.511h-3.299v-7.83c0-.201-.2-.402-.55-.553l-18.542-7.68c-3.05-.1-3.549.201-3.549.552v12.6h-3.299L469.001 97.4v-8.132c1.55 0 1.949-.451 1.949-.953a.951.951 0 0 0-.95-.954l-1-5.572c1.55 0 1.95-.452 1.95-.954a.951.951 0 0 0-.95-.953l-1.5-.904c0-.1-14.493-.184-43.482-.251-.1 0-.183.385-.25 1.155-2.049 0-2.449.451-2.449.953 0 .552.45.954.95.954l1 5.572c-1.55 0-1.95.452-1.95.954 0 .552.45.953.95.953l1 10.944h-4.599c-1.4-10.944-4.798-20.983-9.746-29.567 2 0 2.6-.552 2.6-1.305v-2.56c0-.703-.6-1.305-1.3-1.305h-4.598c-5.498-7.881-12.146-13.754-17.743-15.963V38.418c0-.702-.6-1.305-1.3-1.305-3.349 0-3.898.603-3.898 1.305v26.957c-3.349 0-3.949.552-3.949 1.305v2.56c0 .702.6 1.305 1.3 1.305l2.649 21.484h-5.498l-.75-21.183c0-.602-.25-1.807-1.45-2.108l-.05-2.61c0-.1 0-.352-.2-.503-.949.201-.999.402-.999.502l-.05 2.61c-1.15.302-1.45 1.456-1.45 2.059l-.899 26.052h-5.797V80.032c0-.25-.2-.452-.45-.452l-.15-3.313c0-.25-.2-.451-.45-.451h-3.649c-.25 0-.45.2-.45.451v3.012h-3.498v-5.773c0-.25-.2-.451-.45-.451-1-1.054-1.6-3.364-5.098-5.07-.25-4.518-.55-4.518-.95-4.518-.45 0-.65 0-.9 4.367-.549.251-1.798.854-2.898 2.26a.438.438 0 0 0-.45-.352c.4-1.255 4.698-5.723 4.149-11.445-.55-6.526-7.447-11.395-7.747-11.596-4.199-3.162-8.697-6.827-9.097-7.68-.05-5.17-.45-5.472-.6-5.622-.85.15-1.249.452-1.299 5.622-.45.853-4.898 4.518-9.096 7.68-.3.2-7.247 5.02-7.847 11.646-.55 5.722 3.748 10.19 5.098 11.445-1.15 0-1.35.15-1.4.351-1.15-1.405-2.399-2.058-2.899-2.259-.25-4.317-.45-4.367-.9-4.367-.399 0-.749-.05-.999 4.518-3.498 1.707-4.048 4.016-4.148 5.07-1.2 0-1.4.2-1.4.452v5.772h-3.498v-3.011c0-.251-.2-.452-.45-.452h-3.649c-.25 0-.45.2-.45.452v3.313c-.4 0-.6.2-.6.451v22.188h-5.497l-1.1-31.424c0-.602-.25-1.807-1.449-2.108l-.05-2.61c0-.05 0-.352-.2-.503-.95.201-1 .402-1 .502l-.05 2.61c-1.149.302-1.449 1.456-1.449 2.059l-1 29.466c-5.847-8.584-9.246-21.384-11.295-31.976-.3-1.406-.55-2.71-.8-4.016-1.3-7.078-1.899-13.603-2.149-17.82-.3-4.417-.3-7.279-.3-7.53.1-.2.334-.317.7-.35v-2.712l-.7-.953v-1.807c-1.05-.1-1.15-.352-1.2-.703l-.1-.803-.05-.553-2.098.553s0 .351-.1.803c-.05.401-.15.602-.2.753l-1 1.807-.7.954v2.66c.6.2.65.251.7.452 0 .25 0 3.112-.3 7.48-.3 4.216-.9 10.742-2.149 17.82-.25 1.304-.5 2.66-.8 4.065-2.199 11.496-6.047 25.55-12.844 34.034h-4.898v-1.707a2.01 2.01 0 0 0-2-2.007h-6.247v-5.974c7.747-.954 13.045-6.676 14.794-9.688.25-.402.4-.753.5-1.155.1-.3.15-.702.05-1.003-.2-.553-.7-.904-1.2-.804-3.798.653-6.997.553-9.996-.2v-4.317c6.648-2.56 10.796-8.484 10.946-9.99.05-.552-.2-1.104-.65-1.355-.6-.351-1.15.05-1.5.402-3.748.602-6.896.451-9.845-.452-1.5-1.155-2.95-4.87-3.999-7.58-.4-1.054-.8-2.058-1.15-2.811-.2-.402-.549-.653-.949-.653H194.66c-.45 0-.85.302-1 .803a54.6 54.6 0 0 0-.85 2.61c-.799 2.56-1.998 6.326-3.148 7.63-2.899.854-6.098.955-9.946.302-1.75 0-2 .602-2 1.104.1 1.506 4.299 7.43 10.946 9.99v4.317c-2.998.753-6.247.753-10.246.05-.55-.1-1.1.351-1.25 1.004-.099.502.05.953.4 1.255.1.401.35.903.7 1.556 2.15 3.815 6.648 8.031 12.995 8.935v6.024h-15.094l.75-2.912c.15-.552 0-1.154-.35-1.606-.35-.452-.9-.703-1.45-.703-2.248 0-4.447.502-6.447 1.456l3.299-13.052c.15-.552 0-1.154-.35-1.606-.35-.452-.9-.703-1.45-.703-5.897 0-11.745 1.858-16.593 5.22-8.296-14.556-23.94-24.395-41.783-24.395-.7 0-1.3.351-1.65.954-.3.602-.3 1.355.1 1.907.05.1 7.098 10.993 9.897 21.585-4.848-3.464-10.646-5.32-16.744-5.32-.55 0-1.1.25-1.45.702-.349.452-.499 1.054-.349 1.606l.8 3.062C97.599 81.488 91.8 79.48 85.553 79.48c-.55 0-1.1.251-1.449.703-.35.452-.5 1.054-.35 1.606l5.198 20.681c-2.899 0-3.698.854-3.698 1.858v2.56h-5.248c.15-1.556.35-3.564.35-3.564.5-.301.45-.452.35-.552-.1-.151-.35-.402-.35-.402-.05-.452.5-5.12.5-5.12.25-.452.35-.653.2-.803-.1-.15-.5-.552-.5-.552-.05-.302.55-4.568.55-4.568s.399-.402.399-.553c-.15-.351-.65-.753-.65-.753l.55-4.417s.4-.301.4-.351c0-.15 0-.402-.05-.502-.05-.05-.4-.552-.4-.552-.05-.452.3-3.815.3-3.815s.35-.502.4-.553c.05-.05.1-.3 0-.401-.05-.15-.4-.653-.4-.653s-.05-.25-.05-.401c0-.151.5-3.514.5-3.514s.4-.703.4-.854c0-.2.1-.451.05-.552-.05-.15-.8-1.506-1.9-2.058 0 0-.05-.301-.05-.452 0-.15.35-3.162.35-3.162s.5-.803.55-1.054c.3-.854-.85-2.259-1.65-2.761-.799-.552-1.999-.954-3.598-1.155-1.65-.15-2.849.05-3.748.302-.9.351-2.3 1.405-2.2 2.359 0 .25.3 1.154.3 1.154s-.35 3.012-.35 3.163c0 .15-.1.452-.1.452-1.199.3-2.249 1.405-2.349 1.556-.05.1-.1.452-.1.552 0 .2.2.903.2.903s-.3 3.414-.3 3.565c-.15.35-.55.853-.7.903-.05.05-.1.301-.1.402.05.05.3.652.3.652s-.4 3.363-.449 3.464c-.1.25-.55.602-.65.652-.05.05-.15.302-.15.452 0 .15.3.452.3.452l-.4 4.417s-.6.302-.65.352c-.35.15-.35.3-.35.451 0 .05.3.603.3.603s-.35 4.267-.35 4.367c-.1.251-.55.552-.699.653-.15.05-.1.3 0 .451.05.151.15.402.15.402s-.5 4.668-.5 4.87c-.15.25-.5.501-.6.601-.2.251.15.553.15.553s-.65 5.32-.65 5.421h-5.847c-.2-.1-1.1-.184-2.699-.251V91.126c4.898 0 6.897-1.004 8.097-2.761l.3-.402c.6-.803.4-1.957-.45-2.51-.8-.552-1.95-.35-2.55.452l-11.445-5.923c-.033 0-.083-2.326-.15-6.977 2.4 0 4.399-1.004 5.598-2.761l.3-.402c.6-.803.4-1.958-.45-2.51-.8-.552-1.949-.351-2.549.452l-11.845-5.873c-.167-.1-1.816-.167-4.948-.2 0-.955-.85-1.758-1.8-1.758-.999 0-1.799.803-1.799 1.757h-4.098c-.2 0-4.365 2.142-12.495 6.425-.85-1.154-1.95-1.355-2.799-.803-.8.552-1 1.707-.45 2.51l.3.402a6.528 6.528 0 0 0 5.298 2.76l.3 6.928c-.033 0-4.298 2.091-12.795 6.274-.85-1.154-1.95-1.355-2.799-.803-.4.301-.65.703-.75 1.155-.1.452 0 .954.3 1.355l.3.402c1.2 1.706 4.264 2.76 6.363 2.76V110h961zm-685.8-2.494h-.2V106h.2v1.506z" fill="#1E70A1" fill-rule="nonzero"/><path fill="#1E70A1" d="M281 105h2v3h-2zM822.698 72.934c-.347-2.13-1.81-10.62-2.035-12.285-1.266-9.337-1.855-17.898-2.125-23.438-.285-5.789-.291-9.57-.289-9.87.01-.21.066-.296.115-.35a.362.362 0 0 1 .138-.093l.453-.07v-3.54l-.67-1.247v-2.348h-.973c-.057-.163-.134-.452-.2-.947a12.453 12.453 0 0 1-.092-1.045l-.025-.701h-1.99l-.024.701c0 .005-.019.483-.091 1.03-.065.503-.143.798-.202.962h-.973v2.348l-.67 1.247v3.509l.46.102c.17.129.235.219.248.441 0 .299-.006 4.066-.288 9.846-.272 5.54-.86 14.102-2.124 23.438-.228 1.68-1.703 10.24-2.044 12.335-2.745 13.9-7.37 17.86-15.157 26.74L793 101h12.25l.427-.002.104-.554c.002-.007.157-.803.507-1.976.32-1.075.878-2.697 1.705-4.311 2.082-4.068 4.776-6.132 8.007-6.132 3.23 0 5.925 2.063 8.007 6.132.828 1.614 1.385 3.235 1.705 4.311.352 1.173.505 1.969.507 1.976l.105.556H839c-9.039-9.442-14.473-18.797-16.302-28.066z"/></g></svg>